<svg xmlns="http://www.w3.org/2000/svg" xmlns:xlink="http://www.w3.org/1999/xlink"
    xmlns:a="http://ns.adobe.com/AdobeSVGViewerExtensions/3.0/"
    x="0px" y="0px" width="12.5px" height="12.5px" viewBox="0 0 12.5 12.5"
    enable-background="new 0 0 12.5 12.5"
    xml:space="preserve">
<path d="M12,0H0.5C0.2,0,0,0.2,0,0.5V12c0,0.3,0.2,0.5,0.5,0.5H12c0.3,0,0.5-0.2,0.5-0.5V0.5C12.5,0.2,12.3,0,12,0z
	 M11.4,11.4H1.1V1.1h10.3V11.4z M9.7,5.7H7.8c0,0,0-0.1,0-0.1V4.8c0-0.1,0-0.1,0-0.1h1.9c0,0,0,0.1,0,0.1v0.8
	C9.7,5.6,9.7,5.7,9.7,5.7z M10.8,7.9H7.9c-0.1,0-0.1-0.1-0.1-0.1V7.1c0-0.1,0.1-0.1,0.1-0.1h2.9c0.1,0,0.1,0.1,0.1,0.1v0.8
	C10.9,7.9,10.8,7.9,10.8,7.9z M2.4,8.8H1.7c-0.1,0-0.1-0.1-0.1-0.1c0-0.4,0.1-0.8,0.3-1.1c0.2-0.3,0.5-0.6,0.8-0.8
	C2.5,6.4,2.3,5.9,2.3,5.5c0-1,0.8-1.8,1.7-1.8c1,0,1.7,0.8,1.7,1.8c0,0.4-0.2,0.9-0.5,1.2c0.7,0.4,1.1,1.1,1.2,2c0,0,0,0,0,0
	c0,0,0,0,0,0c0,0,0,0,0,0c0,0,0,0,0,0H5.7c-0.1,0-0.1-0.1-0.1-0.1C5.5,7.9,4.9,7.2,4.1,7.2S2.6,7.9,2.6,8.6C2.6,8.7,2.5,8.8,2.4,8.8
	z"/>
</svg>
